<svg width="12" height="18" viewBox="0 0 12 18" fill="none" xmlns="http://www.w3.org/2000/svg">
<path d="M0.29 11.29C0.196272 11.383 0.121877 11.4936 0.0711088 11.6154C0.0203401 11.7373 -0.00579834 11.868 -0.00579834 12C-0.00579834 12.132 0.0203401 12.2627 0.0711088 12.3846C0.121877 12.5064 0.196272 12.617 0.29 12.71L5.29 17.71C5.38296 17.8037 5.49356 17.8781 5.61542 17.9289C5.73728 17.9797 5.86799 18.0058 6 18.0058C6.13201 18.0058 6.26272 17.9797 6.38458 17.9289C6.50644 17.8781 6.61704 17.8037 6.71 17.71L11.71 12.71C11.8037 12.617 11.8781 12.5064 11.9289 12.3846C11.9797 12.2627 12.0058 12.132 12.0058 12C12.0058 11.868 11.9797 11.7373 11.9289 11.6154C11.8781 11.4936 11.8037 11.383 11.71 11.29C11.617 11.1963 11.5064 11.1219 11.3846 11.0711C11.2627 11.0203 11.132 10.9942 11 10.9942C10.868 10.9942 10.7373 11.0203 10.6154 11.0711C10.4936 11.1219 10.383 11.1963 10.29 11.29L6 15.59L1.71 11.29C1.61704 11.1963 1.50644 11.1219 1.38458 11.0711C1.26272 11.0203 1.13201 10.9942 1 10.9942C0.867988 10.9942 0.737282 11.0203 0.615423 11.0711C0.493564 11.1219 0.382963 11.1963 0.29 11.29ZM5.29 0.290001L0.29 5.29C0.196761 5.38324 0.122801 5.49393 0.0723405 5.61575C0.0218802 5.73757 -0.00409174 5.86814 -0.00409174 6C-0.00409174 6.2663 0.101696 6.5217 0.29 6.71C0.383238 6.80324 0.493929 6.8772 0.615751 6.92766C0.737573 6.97812 0.868141 7.00409 1 7.00409C1.2663 7.00409 1.5217 6.8983 1.71 6.71L6 2.41L10.29 6.71C10.383 6.80373 10.4936 6.87812 10.6154 6.92889C10.7373 6.97966 10.868 7.0058 11 7.0058C11.132 7.0058 11.2627 6.97966 11.3846 6.92889C11.5064 6.87812 11.617 6.80373 11.71 6.71C11.8037 6.61704 11.8781 6.50644 11.9289 6.38458C11.9797 6.26272 12.0058 6.13201 12.0058 6C12.0058 5.86799 11.9797 5.73728 11.9289 5.61542C11.8781 5.49356 11.8037 5.38296 11.71 5.29L6.71 0.290001C6.61704 0.196272 6.50644 0.121877 6.38458 0.0711079C6.26272 0.0203392 6.13201 -0.00579834 6 -0.00579834C5.86799 -0.00579834 5.73728 0.0203392 5.61542 0.0711079C5.49356 0.121877 5.38296 0.196272 5.29 0.290001Z" fill="#9B9B9B"/>
</svg>
