<svg width="15" height="13" viewBox="0 0 15 13" fill="none" xmlns="http://www.w3.org/2000/svg">
<path d="M8.9165 7.20833H12.4582V5.79167H8.9165V7.20833ZM8.9165 5.08333H12.4582V3.66667H8.9165V5.08333ZM2.5415 9.33333H8.20817V8.94375C8.20817 8.4125 7.94845 7.99057 7.429 7.67796C6.90956 7.36535 6.22484 7.2088 5.37484 7.20833C4.52484 7.20786 3.84011 7.3644 3.32067 7.67796C2.80123 7.99151 2.5415 8.41344 2.5415 8.94375V9.33333ZM5.37484 6.5C5.76442 6.5 6.09805 6.3614 6.37571 6.08421C6.65338 5.80701 6.79198 5.47339 6.7915 5.08333C6.79103 4.69328 6.65243 4.35989 6.37571 4.08317C6.09899 3.80644 5.76536 3.66761 5.37484 3.66667C4.98431 3.66572 4.65092 3.80455 4.37467 4.08317C4.09842 4.36178 3.95959 4.69517 3.95817 5.08333C3.95675 5.4715 4.09559 5.80512 4.37467 6.08421C4.65375 6.36329 4.98714 6.50189 5.37484 6.5ZM1.83317 12.1667C1.44359 12.1667 1.1102 12.0281 0.833004 11.7509C0.555809 11.4737 0.416976 11.1401 0.416504 10.75V2.25C0.416504 1.86042 0.555337 1.52703 0.833004 1.24983C1.11067 0.972637 1.44406 0.833804 1.83317 0.833332H13.1665C13.5561 0.833332 13.8897 0.972165 14.1674 1.24983C14.445 1.5275 14.5836 1.86089 14.5832 2.25V10.75C14.5832 11.1396 14.4446 11.4732 14.1674 11.7509C13.8902 12.0285 13.5566 12.1671 13.1665 12.1667H1.83317ZM1.83317 10.75H13.1665V2.25H1.83317V10.75Z" fill="white"/>
</svg>
