<svg width="20" height="20" viewBox="0 0 20 20" fill="none" xmlns="http://www.w3.org/2000/svg">
<path d="M19.5053 8.80075L11.1999 0.494897C10.881 0.17792 10.4497 0 10.0001 0C9.55048 0 9.11914 0.17792 8.80029 0.494897L0.494918 8.80075C0.177928 9.11959 0 9.55091 0 10.0005C0 10.4501 0.177928 10.8814 0.494918 11.2003L8.80113 19.5053C9.46082 20.1649 10.5394 20.1649 11.2007 19.5053L19.507 11.1994C19.8228 10.8803 20 10.4495 20 10.0005C20 9.55153 19.8228 9.12069 19.507 8.8016L19.5053 8.80075ZM9.3243 4.47146C9.51028 4.27023 9.74883 4.16962 10.0399 4.16962C10.4766 4.16962 10.569 4.26967 10.7556 4.46892C10.9421 4.66789 11.0354 4.91802 11.0354 5.2193C11.0354 5.47875 10.9498 6.34981 10.7785 7.83247C10.6089 9.31626 10.4563 10.7492 10.3291 12.1329H9.72113C9.60751 10.7486 9.46619 9.31513 9.29717 7.83247C9.12871 6.34924 9.04449 5.47818 9.04449 5.2193C9.04449 4.9231 9.13776 4.67439 9.3243 4.47316V4.47146ZM10.7912 15.3413C10.5809 15.5448 10.3305 15.6465 10.0399 15.6465C9.60411 15.6465 9.49897 15.5448 9.28954 15.3413C9.08038 15.1361 8.97581 14.8883 8.97581 14.5977C8.97581 14.1619 9.0801 14.0568 9.28954 13.8473C9.49982 13.6371 9.75024 13.5319 10.0408 13.5319C10.4766 13.5319 10.5818 13.6371 10.7912 13.8473C11.0026 14.0565 11.108 14.3066 11.1075 14.5977C11.1066 15.0344 11.0023 15.1361 10.792 15.3405L10.7912 15.3413Z" fill="#FFFF00"/>
</svg>
