<svg width="20" height="18" viewBox="0 0 20 18" fill="none" xmlns="http://www.w3.org/2000/svg">
<path fill-rule="evenodd" clip-rule="evenodd" d="M7.90822 1.71881C8.82622 0.086812 11.1746 0.086812 12.0914 1.71881L18.7874 13.6228C19.6874 15.2236 18.5318 17.1988 16.697 17.1988H3.30382C1.46782 17.1988 0.312218 15.2236 1.21222 13.6228L7.90822 1.71881ZM11.1998 13.6C11.1998 13.9183 11.0734 14.2235 10.8483 14.4485C10.6233 14.6736 10.3181 14.8 9.99982 14.8C9.68156 14.8 9.37633 14.6736 9.15129 14.4485C8.92625 14.2235 8.79982 13.9183 8.79982 13.6C8.79982 13.2818 8.92625 12.9765 9.15129 12.7515C9.37633 12.5264 9.68156 12.4 9.99982 12.4C10.3181 12.4 10.6233 12.5264 10.8483 12.7515C11.0734 12.9765 11.1998 13.2818 11.1998 13.6ZM9.99982 4.00001C9.68156 4.00001 9.37633 4.12644 9.15129 4.35148C8.92625 4.57653 8.79982 4.88175 8.79982 5.20001V8.80001C8.79982 9.11827 8.92625 9.4235 9.15129 9.64854C9.37633 9.87358 9.68156 10 9.99982 10C10.3181 10 10.6233 9.87358 10.8483 9.64854C11.0734 9.4235 11.1998 9.11827 11.1998 8.80001V5.20001C11.1998 4.88175 11.0734 4.57653 10.8483 4.35148C10.6233 4.12644 10.3181 4.00001 9.99982 4.00001Z" fill="#FF6A00"/>
</svg>
