<svg width="28" height="28" viewBox="0 0 28 28" fill="none" xmlns="http://www.w3.org/2000/svg">
<circle cx="14" cy="14" r="13.5" fill="#018BE3" stroke="#018BE3"/>
<path d="M10.0341 20V18.4773L14.0739 14.517C14.4602 14.1269 14.7822 13.7803 15.0398 13.4773C15.2973 13.1742 15.4905 12.8807 15.6193 12.5966C15.7481 12.3125 15.8125 12.0095 15.8125 11.6875C15.8125 11.3201 15.7292 11.0057 15.5625 10.7443C15.3958 10.4792 15.1667 10.2746 14.875 10.1307C14.5833 9.98674 14.2519 9.91477 13.8807 9.91477C13.4981 9.91477 13.1629 9.99432 12.875 10.1534C12.5871 10.3087 12.3636 10.5303 12.2045 10.8182C12.0492 11.1061 11.9716 11.4489 11.9716 11.8466H9.96591C9.96591 11.108 10.1345 10.4659 10.4716 9.92045C10.8087 9.375 11.2727 8.95265 11.8636 8.65341C12.4583 8.35417 13.1402 8.20455 13.9091 8.20455C14.6894 8.20455 15.375 8.35038 15.9659 8.64205C16.5568 8.93371 17.0152 9.33333 17.3409 9.84091C17.6705 10.3485 17.8352 10.928 17.8352 11.5795C17.8352 12.0152 17.7519 12.4432 17.5852 12.8636C17.4186 13.2841 17.125 13.75 16.7045 14.2614C16.2879 14.7727 15.7027 15.392 14.9489 16.1193L12.9432 18.1591V18.2386H18.0114V20H10.0341Z" fill="#121212"/>
</svg>
