<svg width="28" height="28" viewBox="0 0 28 28" fill="none" xmlns="http://www.w3.org/2000/svg">
<circle cx="14" cy="14" r="14" fill="#018BE3"/>
<path d="M14.2102 20.1591C13.392 20.1591 12.6648 20.0189 12.0284 19.7386C11.3958 19.4583 10.8958 19.0682 10.5284 18.5682C10.161 18.0682 9.96591 17.4905 9.94318 16.8352H12.0795C12.0985 17.1496 12.2027 17.4242 12.392 17.6591C12.5814 17.8902 12.8333 18.0701 13.1477 18.1989C13.4621 18.3277 13.8144 18.392 14.2045 18.392C14.6212 18.392 14.9905 18.3201 15.3125 18.1761C15.6345 18.0284 15.8864 17.8239 16.0682 17.5625C16.25 17.3011 16.339 17 16.3352 16.6591C16.339 16.3068 16.2481 15.9962 16.0625 15.7273C15.8769 15.4583 15.608 15.2481 15.2557 15.0966C14.9072 14.9451 14.4867 14.8693 13.9943 14.8693H12.9659V13.2443H13.9943C14.3996 13.2443 14.7538 13.1742 15.0568 13.0341C15.3636 12.8939 15.6042 12.697 15.7784 12.4432C15.9527 12.1856 16.0379 11.8883 16.0341 11.5511C16.0379 11.2216 15.964 10.9356 15.8125 10.6932C15.6648 10.447 15.4545 10.2557 15.1818 10.1193C14.9129 9.98295 14.5966 9.91477 14.233 9.91477C13.8769 9.91477 13.5473 9.97917 13.2443 10.108C12.9413 10.2367 12.697 10.4205 12.5114 10.6591C12.3258 10.8939 12.2273 11.1742 12.2159 11.5H10.1875C10.2027 10.8485 10.3902 10.2765 10.75 9.78409C11.1136 9.28788 11.5985 8.90151 12.2045 8.625C12.8106 8.3447 13.4905 8.20455 14.2443 8.20455C15.0208 8.20455 15.6951 8.35038 16.267 8.64205C16.8428 8.92992 17.2879 9.31818 17.6023 9.80682C17.9167 10.2955 18.0739 10.8352 18.0739 11.4261C18.0777 12.0814 17.8845 12.6307 17.4943 13.0739C17.108 13.517 16.6004 13.8068 15.9716 13.9432V14.0341C16.7898 14.1477 17.4167 14.4508 17.8523 14.9432C18.2917 15.4318 18.5095 16.0398 18.5057 16.767C18.5057 17.4186 18.3201 18.0019 17.9489 18.517C17.5814 19.0284 17.0739 19.4299 16.4261 19.7216C15.7822 20.0133 15.0436 20.1591 14.2102 20.1591Z" fill="#121212"/>
</svg>
