<svg width="261" height="160" viewBox="0 0 261 160" fill="none" xmlns="http://www.w3.org/2000/svg">
<path d="M21.4086 58.68C17.6119 58.68 14.1836 58 11.1236 56.64C8.06359 55.2233 5.57026 53.2967 3.64359 50.86C1.77359 48.4233 0.611927 45.5617 0.158594 42.275L1.51859 41.85C1.80193 44.91 2.85026 47.63 4.66359 50.01C6.53359 52.3333 8.91359 54.175 11.8036 55.535C14.7503 56.8383 17.9803 57.49 21.4936 57.49C24.5536 57.49 27.4153 56.98 30.0786 55.96C32.7419 54.8833 34.8953 53.325 36.5386 51.285C38.2386 49.1883 39.0886 46.61 39.0886 43.55C39.0886 40.7167 37.9836 38.3083 35.7736 36.325C33.5636 34.3417 30.4469 32.7833 26.4236 31.65L20.1336 29.865C16.2236 28.7317 13.1636 26.975 10.9536 24.595C8.80026 22.215 7.72359 19.2683 7.72359 15.755C7.72359 12.9783 8.46026 10.485 9.93359 8.275C11.4069 6.00833 13.5036 4.22333 16.2236 2.92C18.9436 1.61667 22.2019 0.965 25.9986 0.965C30.8719 0.965 34.9803 2.09833 38.3236 4.365C41.7236 6.575 43.9619 9.975 45.0386 14.565L43.7636 14.99C43.0836 12.0433 41.9219 9.635 40.2786 7.765C38.6353 5.895 36.5953 4.50666 34.1586 3.6C31.7786 2.63667 29.0303 2.155 25.9136 2.155C22.5136 2.155 19.5386 2.75 16.9886 3.94C14.4953 5.13 12.5403 6.745 11.1236 8.785C9.76359 10.825 9.08359 13.12 9.08359 15.67C9.08359 18.7867 10.0469 21.45 11.9736 23.66C13.9003 25.87 16.7619 27.5133 20.5586 28.59L26.5936 30.29C31.2403 31.5933 34.7253 33.35 37.0486 35.56C39.3719 37.7133 40.5336 40.32 40.5336 43.38C40.5336 46.7233 39.6553 49.5567 37.8986 51.88C36.1419 54.1467 33.7903 55.8467 30.8436 56.98C27.9536 58.1133 24.8086 58.68 21.4086 58.68ZM54.7 58L59.715 36.325L49.6 1.9H51.045L57.08 22.385L60.65 34.88L70.765 21.365L85.555 1.9H87.255L61.075 36.325L56.06 58H54.7ZM99.0707 58.68C95.274 58.68 91.8457 58 88.7857 56.64C85.7257 55.2233 83.2324 53.2967 81.3057 50.86C79.4357 48.4233 78.274 45.5617 77.8207 42.275L79.1807 41.85C79.464 44.91 80.5124 47.63 82.3257 50.01C84.1957 52.3333 86.5757 54.175 89.4657 55.535C92.4124 56.8383 95.6424 57.49 99.1557 57.49C102.216 57.49 105.077 56.98 107.741 55.96C110.404 54.8833 112.557 53.325 114.201 51.285C115.901 49.1883 116.751 46.61 116.751 43.55C116.751 40.7167 115.646 38.3083 113.436 36.325C111.226 34.3417 108.109 32.7833 104.086 31.65L97.7957 29.865C93.8857 28.7317 90.8257 26.975 88.6157 24.595C86.4624 22.215 85.3857 19.2683 85.3857 15.755C85.3857 12.9783 86.1224 10.485 87.5957 8.275C89.069 6.00833 91.1657 4.22333 93.8857 2.92C96.6057 1.61667 99.864 0.965 103.661 0.965C108.534 0.965 112.642 2.09833 115.986 4.365C119.386 6.575 121.624 9.975 122.701 14.565L121.426 14.99C120.746 12.0433 119.584 9.635 117.941 7.765C116.297 5.895 114.257 4.50666 111.821 3.6C109.441 2.63667 106.692 2.155 103.576 2.155C100.176 2.155 97.2007 2.75 94.6507 3.94C92.1574 5.13 90.2024 6.745 88.7857 8.785C87.4257 10.825 86.7457 13.12 86.7457 15.67C86.7457 18.7867 87.709 21.45 89.6357 23.66C91.5624 25.87 94.424 27.5133 98.2207 28.59L104.256 30.29C108.902 31.5933 112.387 33.35 114.711 35.56C117.034 37.7133 118.196 40.32 118.196 43.38C118.196 46.7233 117.317 49.5567 115.561 51.88C113.804 54.1467 111.452 55.8467 108.506 56.98C105.616 58.1133 102.471 58.68 99.0707 58.68ZM166.068 1.9L165.728 3.09H145.923L133.258 58H131.898L144.563 3.09H124.588L124.928 1.9H166.068ZM157.981 58L170.986 1.9H205.411L205.071 3.09H172.006L166.141 28.76H192.831L192.491 29.95H165.801L159.681 56.81H194.276L194.021 58H157.981ZM200.547 58L213.552 1.9H215.337L224.007 53.75L224.347 56.555L225.877 54.005L258.772 1.9H260.642L247.637 58H246.277L257.752 8.53L258.942 3.855L224.942 58H223.327L214.317 3.855L213.382 8.53L201.907 58H200.547ZM94.0613 159.12C87.6213 159.12 81.6946 157.627 76.2813 154.64C70.9613 151.56 66.7146 147.08 63.5413 141.2C60.3679 135.32 58.7813 128.227 58.7813 119.92C58.7813 112.733 59.8079 105.827 61.8613 99.2C63.9146 92.48 66.9013 86.5067 70.8213 81.28C74.8346 76.0533 79.7813 71.9 85.6613 68.82C91.5413 65.74 98.2613 64.2 105.821 64.2C111.141 64.2 116.041 65.04 120.521 66.72C125.095 68.4 129.061 71.06 132.421 74.7C135.781 78.34 138.301 83.0533 139.981 88.84L132.141 91.5C130.181 84.5933 126.821 79.5067 122.061 76.24C117.395 72.9733 111.841 71.34 105.401 71.34C99.1479 71.34 93.6413 72.6933 88.8813 75.4C84.1213 78.0133 80.1079 81.6067 76.8413 86.18C73.5746 90.7533 71.1013 95.8867 69.4213 101.58C67.7413 107.18 66.9013 112.967 66.9013 118.94C66.9013 125.94 68.1146 131.913 70.5413 136.86C72.9679 141.713 76.3279 145.447 80.6213 148.06C85.0079 150.58 89.9546 151.84 95.4613 151.84C100.501 151.84 105.075 150.907 109.181 149.04C113.288 147.08 116.741 144.233 119.541 140.5C122.435 136.673 124.535 131.913 125.841 126.22L127.101 120.62H97.7013L99.5213 113.34H135.781L125.141 158H118.841L123.461 136.72L124.581 137C122.901 142.133 120.521 146.333 117.441 149.6C114.455 152.867 111.001 155.293 107.081 156.88C103.161 158.373 98.8213 159.12 94.0613 159.12ZM220.389 65.6L218.709 72.88H187.489L167.889 158H160.049L179.649 72.88H148.149L149.969 65.6H220.389Z" fill="white"/>
</svg>
