<svg width="20" height="20" viewBox="0 0 20 20" fill="none" xmlns="http://www.w3.org/2000/svg">
<path d="M8.825 20C8.375 20 7.98767 19.85 7.663 19.55C7.33833 19.25 7.14233 18.8833 7.075 18.45L6.85 16.8C6.63333 16.7167 6.42933 16.6167 6.238 16.5C6.04667 16.3833 5.859 16.2583 5.675 16.125L4.125 16.775C3.70833 16.9583 3.29167 16.975 2.875 16.825C2.45833 16.675 2.13333 16.4083 1.9 16.025L0.724999 13.975C0.491666 13.5917 0.425 13.1833 0.525 12.75C0.625 12.3167 0.85 11.9583 1.2 11.675L2.525 10.675C2.50833 10.5583 2.5 10.4457 2.5 10.337V9.662C2.5 9.554 2.50833 9.44167 2.525 9.325L1.2 8.325C0.85 8.04167 0.625 7.68333 0.525 7.25C0.425 6.81667 0.491666 6.40833 0.724999 6.025L1.9 3.975C2.13333 3.59167 2.45833 3.325 2.875 3.175C3.29167 3.025 3.70833 3.04167 4.125 3.225L5.675 3.875C5.85833 3.74167 6.05 3.61667 6.25 3.5C6.45 3.38333 6.65 3.28333 6.85 3.2L7.075 1.55C7.14167 1.11667 7.33767 0.75 7.663 0.45C7.98833 0.15 8.37567 0 8.825 0H11.175C11.625 0 12.0127 0.15 12.338 0.45C12.6633 0.75 12.859 1.11667 12.925 1.55L13.15 3.2C13.3667 3.28333 13.571 3.38333 13.763 3.5C13.955 3.61667 14.1423 3.74167 14.325 3.875L15.875 3.225C16.2917 3.04167 16.7083 3.025 17.125 3.175C17.5417 3.325 17.8667 3.59167 18.1 3.975L19.275 6.025C19.5083 6.40833 19.575 6.81667 19.475 7.25C19.375 7.68333 19.15 8.04167 18.8 8.325L17.475 9.325C17.4917 9.44167 17.5 9.55433 17.5 9.663V10.337C17.5 10.4457 17.4833 10.5583 17.45 10.675L18.775 11.675C19.125 11.9583 19.35 12.3167 19.45 12.75C19.55 13.1833 19.4833 13.5917 19.25 13.975L18.05 16.025C17.8167 16.4083 17.4917 16.675 17.075 16.825C16.6583 16.975 16.2417 16.9583 15.825 16.775L14.325 16.125C14.1417 16.2583 13.95 16.3833 13.75 16.5C13.55 16.6167 13.35 16.7167 13.15 16.8L12.925 18.45C12.8583 18.8833 12.6627 19.25 12.338 19.55C12.0133 19.85 11.6257 20 11.175 20H8.825ZM9 18H10.975L11.325 15.35C11.8417 15.2167 12.321 15.021 12.763 14.763C13.205 14.505 13.609 14.1923 13.975 13.825L16.45 14.85L17.425 13.15L15.275 11.525C15.3583 11.2917 15.4167 11.046 15.45 10.788C15.4833 10.53 15.5 10.2673 15.5 10C15.5 9.73267 15.4833 9.47033 15.45 9.213C15.4167 8.95567 15.3583 8.70967 15.275 8.475L17.425 6.85L16.45 5.15L13.975 6.2C13.6083 5.81667 13.2043 5.496 12.763 5.238C12.3217 4.98 11.8423 4.784 11.325 4.65L11 2H9.025L8.675 4.65C8.15833 4.78333 7.67933 4.97933 7.238 5.238C6.79667 5.49667 6.39233 5.809 6.025 6.175L3.55 5.15L2.575 6.85L4.725 8.45C4.64167 8.7 4.58333 8.95 4.55 9.2C4.51667 9.45 4.5 9.71667 4.5 10C4.5 10.2667 4.51667 10.525 4.55 10.775C4.58333 11.025 4.64167 11.275 4.725 11.525L2.575 13.15L3.55 14.85L6.025 13.8C6.39167 14.1833 6.796 14.5043 7.238 14.763C7.68 15.0217 8.159 15.2173 8.675 15.35L9 18ZM10.05 13.5C11.0167 13.5 11.8417 13.1583 12.525 12.475C13.2083 11.7917 13.55 10.9667 13.55 10C13.55 9.03333 13.2083 8.20833 12.525 7.525C11.8417 6.84167 11.0167 6.5 10.05 6.5C9.06667 6.5 8.23767 6.84167 7.563 7.525C6.88833 8.20833 6.55067 9.03333 6.55 10C6.54933 10.9667 6.887 11.7917 7.563 12.475C8.239 13.1583 9.068 13.5 10.05 13.5Z" fill="white"/>
</svg>
