<svg width="20" height="22" viewBox="0 0 20 22" fill="none" xmlns="http://www.w3.org/2000/svg">
<path fill-rule="evenodd" clip-rule="evenodd" d="M4.9975 10.733L5.9275 6.089C6.11765 5.14909 6.62706 4.30387 7.36933 3.69673C8.11161 3.08958 9.04104 2.75788 10 2.75788C10.959 2.75788 11.8884 3.08958 12.6307 3.69673C13.3729 4.30387 13.8824 5.14909 14.0725 6.089L15.0025 10.733C15.2816 12.1187 15.9624 13.3916 16.96 14.393L17.251 14.6825C17.3582 14.7898 17.4347 14.9239 17.4727 15.0707C17.5106 15.2176 17.5086 15.3719 17.4668 15.5177C17.4251 15.6636 17.3451 15.7956 17.2351 15.9C17.1252 16.0045 16.9893 16.0777 16.8415 16.112L15.61 16.397C11.9187 17.2506 8.08129 17.2506 4.39 16.397L3.16 16.112C3.01212 16.0779 2.87606 16.0049 2.76593 15.9005C2.65579 15.7961 2.5756 15.6641 2.53367 15.5182C2.49173 15.3724 2.48959 15.218 2.52745 15.071C2.56531 14.9241 2.64181 14.7899 2.749 14.6825L3.04 14.393C4.0398 13.3932 4.72096 12.1196 4.9975 10.733ZM2.7925 10.292L3.721 5.648C4.01297 4.19783 4.7979 2.89343 5.94248 1.95633C7.08707 1.01923 8.52073 0.507195 10 0.507195C11.4793 0.507195 12.9129 1.01923 14.0575 1.95633C15.2021 2.89343 15.987 4.19783 16.279 5.648L17.209 10.292C17.398 11.243 17.866 12.116 18.5515 12.8015L18.8425 13.0925C19.2341 13.4837 19.5137 13.9726 19.6524 14.5085C19.7911 15.0443 19.7837 15.6075 19.6311 16.1395C19.4784 16.6716 19.1861 17.153 18.7844 17.5338C18.3827 17.9146 17.8864 18.1809 17.347 18.305L16.1155 18.59C15.0625 18.83 14.0025 19.009 12.9355 19.127C12.7929 19.7996 12.4235 20.4028 11.8893 20.8357C11.355 21.2685 10.6883 21.5047 10.0007 21.5047C9.31317 21.5047 8.64646 21.2685 8.11221 20.8357C7.57797 20.4028 7.20862 19.7996 7.066 19.127C5.99622 19.011 4.93432 18.8312 3.886 18.5885L2.653 18.3035C2.11419 18.1788 1.61853 17.9123 1.21741 17.5315C0.816292 17.1508 0.524318 16.6697 0.371757 16.1381C0.219196 15.6065 0.211601 15.0438 0.349761 14.5083C0.48792 13.9728 0.766804 13.4839 1.1575 13.0925L1.45 12.8C2.1355 12.1145 2.6035 11.24 2.7925 10.2905" fill="white"/>
</svg>
