<svg width="12" height="7" viewBox="0 0 12 7" fill="none" xmlns="http://www.w3.org/2000/svg">
<path fill-rule="evenodd" clip-rule="evenodd" d="M1 0C0.80225 4.22243e-05 0.608952 0.0587139 0.444542 0.168598C0.280132 0.278482 0.151993 0.434646 0.0763228 0.617346C0.000652745 0.800046 -0.0191505 1.00108 0.019417 1.19503C0.0579846 1.38898 0.153191 1.56715 0.293001 1.707L5.293 6.707C5.48053 6.89447 5.73484 6.99979 6 6.99979C6.26516 6.99979 6.51947 6.89447 6.707 6.707L11.707 1.707C11.8468 1.56715 11.942 1.38898 11.9806 1.19503C12.0192 1.00108 11.9993 0.800046 11.9237 0.617346C11.848 0.434646 11.7199 0.278482 11.5555 0.168598C11.391 0.0587139 11.1978 4.22243e-05 11 0H1Z" fill="white"/>
</svg>
