<svg width="17" height="18" viewBox="0 0 17 18" fill="none" xmlns="http://www.w3.org/2000/svg">
<path d="M2.26078 16H5.39122V11C5.39122 10.7167 5.49139 10.4793 5.69174 10.288C5.89209 10.0967 6.13974 10.0007 6.4347 10H10.6086C10.9043 10 11.1523 10.096 11.3526 10.288C11.553 10.48 11.6528 10.7173 11.6521 11V16H14.7825V7L8.52165 2.5L2.26078 7V16ZM0.173828 16V7C0.173828 6.68333 0.247915 6.38333 0.396089 6.1C0.544263 5.81667 0.748437 5.58333 1.00861 5.4L7.26948 0.9C7.6347 0.633333 8.05209 0.5 8.52165 0.5C8.99122 0.5 9.40861 0.633333 9.77383 0.9L16.0347 5.4C16.2956 5.58333 16.5001 5.81667 16.6483 6.1C16.7964 6.38333 16.8702 6.68333 16.8695 7V16C16.8695 16.55 16.665 17.021 16.2559 17.413C15.8469 17.805 15.3557 18.0007 14.7825 18H10.6086C10.313 18 10.0653 17.904 9.86565 17.712C9.666 17.52 9.56583 17.2827 9.56513 17V12H7.47818V17C7.47818 17.2833 7.378 17.521 7.17765 17.713C6.97731 17.905 6.72965 18.0007 6.4347 18H2.26078C1.68687 18 1.19574 17.8043 0.787393 17.413C0.379045 17.0217 0.174524 16.5507 0.173828 16Z" fill="white"/>
</svg>
