<svg width="20" height="18" viewBox="0 0 20 18" fill="none" xmlns="http://www.w3.org/2000/svg">
<path d="M13.3334 16.5V14.8333C13.3334 13.9493 12.9822 13.1014 12.3571 12.4763C11.732 11.8512 10.8841 11.5 10.0001 11.5H5.00008C4.11603 11.5 3.26818 11.8512 2.64306 12.4763C2.01794 13.1014 1.66675 13.9493 1.66675 14.8333V16.5" stroke="white" stroke-width="2" stroke-linecap="round" stroke-linejoin="round"/>
<path d="M7.50008 8.16667C9.34103 8.16667 10.8334 6.67428 10.8334 4.83333C10.8334 2.99238 9.34103 1.5 7.50008 1.5C5.65913 1.5 4.16675 2.99238 4.16675 4.83333C4.16675 6.67428 5.65913 8.16667 7.50008 8.16667Z" stroke="white" stroke-width="2" stroke-linecap="round" stroke-linejoin="round"/>
<path d="M18.3335 16.4999V14.8333C18.3329 14.0947 18.0871 13.3773 17.6346 12.7935C17.1821 12.2098 16.5486 11.7929 15.8335 11.6083M13.3335 1.60828C14.0505 1.79186 14.686 2.20886 15.1399 2.79354C15.5937 3.37821 15.84 4.0973 15.84 4.83744C15.84 5.57759 15.5937 6.29668 15.1399 6.88135C14.686 7.46603 14.0505 7.88303 13.3335 8.06661" stroke="white" stroke-width="2" stroke-linecap="round" stroke-linejoin="round"/>
</svg>
