<svg width="24" height="19" viewBox="0 0 24 19" fill="none" xmlns="http://www.w3.org/2000/svg">
<path d="M14.3335 10.625H20.1668V8.375H14.3335V10.625ZM14.3335 7.25H20.1668V5H14.3335V7.25ZM3.8335 14H13.1668V13.3812C13.1668 12.5375 12.7391 11.8674 11.8835 11.3709C11.0279 10.8744 9.90016 10.6257 8.50016 10.625C7.10016 10.6243 5.97238 10.8729 5.11683 11.3709C4.26127 11.8689 3.8335 12.539 3.8335 13.3812V14ZM8.50016 9.5C9.14183 9.5 9.69133 9.27987 10.1487 8.83963C10.606 8.39937 10.8343 7.8695 10.8335 7.25C10.8327 6.6305 10.6044 6.101 10.1487 5.6615C9.69288 5.222 9.14338 5.0015 8.50016 5C7.85694 4.9985 7.30783 5.219 6.85283 5.6615C6.39783 6.104 6.16916 6.6335 6.16683 7.25C6.1645 7.8665 6.39316 8.39638 6.85283 8.83963C7.3125 9.28288 7.86161 9.503 8.50016 9.5ZM2.66683 18.5C2.02516 18.5 1.47605 18.2799 1.0195 17.8396C0.562941 17.3994 0.334274 16.8695 0.333496 16.25V2.75C0.333496 2.13125 0.562163 1.60175 1.0195 1.1615C1.47683 0.72125 2.02594 0.50075 2.66683 0.5H21.3335C21.9752 0.5 22.5247 0.7205 22.982 1.1615C23.4393 1.6025 23.6676 2.132 23.6668 2.75V16.25C23.6668 16.8687 23.4386 17.3986 22.982 17.8396C22.5254 18.2806 21.9759 18.5007 21.3335 18.5H2.66683ZM2.66683 16.25H21.3335V2.75H2.66683V16.25Z" fill="black"/>
</svg>
