<svg width="18" height="18" viewBox="0 0 18 18" fill="none" xmlns="http://www.w3.org/2000/svg">
<path d="M16.4999 16.5L12.8808 12.8809M12.8808 12.8809C13.4998 12.2618 13.9909 11.5269 14.3259 10.718C14.661 9.90915 14.8334 9.04222 14.8334 8.16672C14.8334 7.29121 14.661 6.42429 14.326 5.61543C13.9909 4.80657 13.4998 4.07162 12.8808 3.45255C12.2617 2.83348 11.5267 2.3424 10.7179 2.00736C9.90902 1.67232 9.0421 1.49988 8.16659 1.49988C7.29109 1.49988 6.42416 1.67232 5.61531 2.00736C4.80645 2.3424 4.0715 2.83348 3.45243 3.45255C2.20215 4.70282 1.49976 6.39856 1.49976 8.16672C1.49976 9.93487 2.20215 11.6306 3.45243 12.8809C4.7027 14.1312 6.39844 14.8336 8.16659 14.8336C9.93475 14.8336 11.6305 14.1312 12.8808 12.8809Z" stroke="black" stroke-width="2" stroke-linecap="round" stroke-linejoin="round"/>
</svg>
