<svg width="14" height="14" viewBox="0 0 14 14" fill="none" xmlns="http://www.w3.org/2000/svg">
<path d="M7 8.4L2.1 13.3C1.91667 13.4833 1.68333 13.575 1.4 13.575C1.11667 13.575 0.883333 13.4833 0.7 13.3C0.516666 13.1167 0.425 12.8833 0.425 12.6C0.425 12.3167 0.516666 12.0833 0.7 11.9L5.6 7L0.7 2.1C0.516666 1.91667 0.425 1.68333 0.425 1.4C0.425 1.11667 0.516666 0.883333 0.7 0.7C0.883333 0.516666 1.11667 0.425 1.4 0.425C1.68333 0.425 1.91667 0.516666 2.1 0.7L7 5.6L11.9 0.7C12.0833 0.516666 12.3167 0.425 12.6 0.425C12.8833 0.425 13.1167 0.516666 13.3 0.7C13.4833 0.883333 13.575 1.11667 13.575 1.4C13.575 1.68333 13.4833 1.91667 13.3 2.1L8.4 7L13.3 11.9C13.4833 12.0833 13.575 12.3167 13.575 12.6C13.575 12.8833 13.4833 13.1167 13.3 13.3C13.1167 13.4833 12.8833 13.575 12.6 13.575C12.3167 13.575 12.0833 13.4833 11.9 13.3L7 8.4Z" fill="white"/>
</svg>
