<svg width="18" height="18" viewBox="0 0 18 18" fill="none" xmlns="http://www.w3.org/2000/svg">
<path d="M12.304 2.84436L15.156 5.69636M5 5.00036H2C1.73478 5.00036 1.48043 5.10572 1.29289 5.29325C1.10536 5.48079 1 5.73514 1 6.00036V16.0004C1 16.2656 1.10536 16.5199 1.29289 16.7075C1.48043 16.895 1.73478 17.0004 2 17.0004H13C13.2652 17.0004 13.5196 16.895 13.7071 16.7075C13.8946 16.5199 14 16.2656 14 16.0004V11.5004M16.409 1.59036C16.5964 1.77767 16.745 2.00005 16.8464 2.24481C16.9478 2.48958 17 2.75192 17 3.01686C17 3.2818 16.9478 3.54414 16.8464 3.78891C16.745 4.03367 16.5964 4.25605 16.409 4.44336L9.565 11.2874L6 12.0004L6.713 8.43536L13.557 1.59136C13.7442 1.4039 13.9664 1.25517 14.2111 1.1537C14.4558 1.05223 14.7181 1 14.983 1C15.2479 1 15.5102 1.05223 15.7549 1.1537C15.9996 1.25517 16.2218 1.4039 16.409 1.59136V1.59036Z" stroke="white" stroke-width="2" stroke-linecap="round" stroke-linejoin="round"/>
</svg>
