<svg width="19" height="19" viewBox="0 0 19 19" fill="none" xmlns="http://www.w3.org/2000/svg">
<path d="M18.6935 14.5754L11.5321 2.16325C11.3247 1.80921 11.028 1.51555 10.6716 1.31146C10.3151 1.10738 9.91134 1 9.50041 1C9.08948 1 8.6857 1.10738 8.32926 1.31146C7.97282 1.51555 7.67612 1.80921 7.4687 2.16325L0.307347 14.5754C0.106076 14.919 0 15.3098 0 15.7078C0 16.1058 0.106076 16.4966 0.307347 16.8402C0.512475 17.196 0.808756 17.4909 1.16579 17.6947C1.52283 17.8985 1.92777 18.0038 2.33906 17.9999H16.6618C17.0728 18.0035 17.4774 17.8981 17.8341 17.6943C18.1908 17.4905 18.4868 17.1957 18.6918 16.8402C18.8934 16.4967 18.9997 16.106 19 15.708C19.0003 15.31 18.8945 14.9192 18.6935 14.5754ZM16.9901 15.8586C16.9568 15.9152 16.9088 15.9618 16.8512 15.9935C16.7935 16.0251 16.7283 16.0407 16.6626 16.0384H2.33906C2.27329 16.0407 2.20814 16.0251 2.15048 15.9935C2.09282 15.9618 2.0448 15.9152 2.01149 15.8586C1.98324 15.8127 1.96829 15.76 1.96829 15.7062C1.96829 15.6523 1.98324 15.5996 2.01149 15.5537L9.17285 3.14155C9.20831 3.08707 9.25685 3.04231 9.31405 3.01131C9.37126 2.98032 9.43532 2.96409 9.50041 2.96409C9.5655 2.96409 9.62956 2.98032 9.68677 3.01131C9.74397 3.04231 9.79251 3.08707 9.82797 3.14155L16.9885 15.5537C17.017 15.5994 17.0322 15.6521 17.0325 15.7059C17.0328 15.7598 17.0181 15.8126 16.9901 15.8586ZM8.51772 10.4808V7.86549C8.51772 7.60538 8.62125 7.35592 8.80554 7.172C8.98983 6.98807 9.23978 6.88474 9.50041 6.88474C9.76103 6.88474 10.011 6.98807 10.1953 7.172C10.3796 7.35592 10.4831 7.60538 10.4831 7.86549V10.4808C10.4831 10.7409 10.3796 10.9904 10.1953 11.1743C10.011 11.3582 9.76103 11.4616 9.50041 11.4616C9.23978 11.4616 8.98983 11.3582 8.80554 11.1743C8.62125 10.9904 8.51772 10.7409 8.51772 10.4808ZM10.8107 13.75C10.8107 14.0086 10.7338 14.2614 10.5898 14.4765C10.4459 14.6915 10.2412 14.8591 10.0018 14.9581C9.7624 15.0571 9.49896 15.083 9.24479 15.0325C8.99063 14.9821 8.75716 14.8575 8.57392 14.6746C8.39068 14.4918 8.26589 14.2588 8.21533 14.0051C8.16478 13.7514 8.19072 13.4885 8.28989 13.2496C8.38906 13.0106 8.557 12.8064 8.77247 12.6627C8.98794 12.519 9.24127 12.4423 9.50041 12.4423C9.84791 12.4423 10.1812 12.5801 10.4269 12.8253C10.6726 13.0706 10.8107 13.4032 10.8107 13.75Z" fill="#CCC61A"/>
</svg>
