<svg width="41" height="40" viewBox="0 0 41 40" fill="none" xmlns="http://www.w3.org/2000/svg">
<path d="M40.5 20C40.5 30.758 31.5574 39.5 20.5 39.5C9.44259 39.5 0.5 30.758 0.5 20C0.5 9.24201 9.44259 0.5 20.5 0.5C31.5574 0.5 40.5 9.24201 40.5 20Z" stroke="white"/>
<path fill-rule="evenodd" clip-rule="evenodd" d="M14.4081 20.2031L16.7475 22.5425C16.835 22.624 16.9052 22.7224 16.9539 22.8316C17.0025 22.9409 17.0287 23.0588 17.0308 23.1784C17.0329 23.298 17.0109 23.4167 16.9661 23.5276C16.9214 23.6385 16.8547 23.7393 16.7701 23.8239C16.6855 23.9084 16.5848 23.9751 16.4739 24.0199C16.363 24.0647 16.2442 24.0867 16.1246 24.0846C16.005 24.0825 15.8871 24.0563 15.7779 24.0076C15.6686 23.9589 15.5703 23.8888 15.4887 23.8013L11.6294 19.9419L11 19.3125L11.6294 18.6831L15.4887 14.8238C15.6576 14.6664 15.8809 14.5808 16.1116 14.5849C16.3424 14.5889 16.5625 14.6824 16.7257 14.8456C16.8889 15.0088 16.9823 15.2289 16.9864 15.4596C16.9905 15.6904 16.9048 15.9137 16.7475 16.0825L14.4081 18.4219H26.1406C27.1642 18.4219 28.1458 18.8285 28.8696 19.5523C29.5934 20.276 30 21.2577 30 22.2813C30 23.3048 29.5934 24.2865 28.8696 25.0102C28.1458 25.734 27.1642 26.1406 26.1406 26.1406H23.7656C23.5294 26.1406 23.3029 26.0468 23.1359 25.8798C22.9688 25.7127 22.875 25.4862 22.875 25.25C22.875 25.0138 22.9688 24.7873 23.1359 24.6202C23.3029 24.4532 23.5294 24.3594 23.7656 24.3594H26.1406C26.6918 24.3594 27.2204 24.1404 27.6101 23.7507C27.9998 23.361 28.2188 22.8324 28.2188 22.2813C28.2188 21.7301 27.9998 21.2015 27.6101 20.8118C27.2204 20.4221 26.6918 20.2031 26.1406 20.2031H14.4081Z" fill="white"/>
</svg>
