<svg width="18" height="18" viewBox="0 0 18 18" fill="none" xmlns="http://www.w3.org/2000/svg">
<path d="M8.91667 16.8333C9.95649 16.8346 10.9863 16.6304 11.947 16.2325C12.9076 15.8346 13.7802 15.2507 14.5145 14.5145C15.2507 13.7802 15.8346 12.9076 16.2325 11.947C16.6304 10.9863 16.8346 9.95649 16.8333 8.91667C16.8346 7.87685 16.6304 6.84703 16.2325 5.88637C15.8346 4.9257 15.2507 4.05314 14.5145 3.3188C13.7802 2.58261 12.9076 1.99878 11.947 1.60085C10.9863 1.20291 9.95649 0.998724 8.91667 1.00001C7.87685 0.998724 6.84703 1.20291 5.88637 1.60085C4.9257 1.99878 4.05314 2.58261 3.3188 3.3188C2.58261 4.05314 1.99878 4.9257 1.60085 5.88637C1.20291 6.84703 0.998724 7.87685 1.00001 8.91667C0.998724 9.95649 1.20291 10.9863 1.60085 11.947C1.99878 12.9076 2.58261 13.7802 3.3188 14.5145C4.05314 15.2507 4.9257 15.8346 5.88637 16.2325C6.84703 16.6304 7.87685 16.8346 8.91667 16.8333Z" stroke="#F24822" stroke-width="2" stroke-linejoin="round"/>
<path fill-rule="evenodd" clip-rule="evenodd" d="M8.91683 14.0625C9.17928 14.0625 9.43099 13.9582 9.61657 13.7726C9.80215 13.5871 9.90641 13.3354 9.90641 13.0729C9.90641 12.8104 9.80215 12.5587 9.61657 12.3732C9.43099 12.1876 9.17928 12.0833 8.91683 12.0833C8.65438 12.0833 8.40267 12.1876 8.21709 12.3732C8.03151 12.5587 7.92725 12.8104 7.92725 13.0729C7.92725 13.3354 8.03151 13.5871 8.21709 13.7726C8.40267 13.9582 8.65438 14.0625 8.91683 14.0625Z" fill="#F24822"/>
<path d="M8.9165 4.16669V10.5" stroke="#F24822" stroke-width="2" stroke-linecap="round" stroke-linejoin="round"/>
</svg>
