<svg width="16" height="16" viewBox="0 0 16 16" fill="none" xmlns="http://www.w3.org/2000/svg">
<path d="M8 2.5C7.73478 2.5 7.48043 2.60536 7.29289 2.79289C7.10536 2.98043 7 3.23478 7 3.5C7 3.76522 7.10536 4.01957 7.29289 4.20711C7.48043 4.39464 7.73478 4.5 8 4.5C8.26522 4.5 8.51957 4.39464 8.70711 4.20711C8.89464 4.01957 9 3.76522 9 3.5C9 3.23478 8.89464 2.98043 8.70711 2.79289C8.51957 2.60536 8.26522 2.5 8 2.5ZM6 3.5C6 2.96957 6.21071 2.46086 6.58579 2.08579C6.96086 1.71071 7.46957 1.5 8 1.5C8.53043 1.5 9.03914 1.71071 9.41421 2.08579C9.78929 2.46086 10 2.96957 10 3.5C10 4.03043 9.78929 4.53914 9.41421 4.91421C9.03914 5.28929 8.53043 5.5 8 5.5C7.46957 5.5 6.96086 5.28929 6.58579 4.91421C6.21071 4.53914 6 4.03043 6 3.5ZM12.75 3C12.5511 3 12.3603 3.07902 12.2197 3.21967C12.079 3.36032 12 3.55109 12 3.75C12 3.94891 12.079 4.13968 12.2197 4.28033C12.3603 4.42098 12.5511 4.5 12.75 4.5C12.9489 4.5 13.1397 4.42098 13.2803 4.28033C13.421 4.13968 13.5 3.94891 13.5 3.75C13.5 3.55109 13.421 3.36032 13.2803 3.21967C13.1397 3.07902 12.9489 3 12.75 3ZM11 3.75C11 3.52019 11.0453 3.29262 11.1332 3.0803C11.2212 2.86798 11.3501 2.67507 11.5126 2.51256C11.6751 2.35006 11.868 2.22116 12.0803 2.13321C12.2926 2.04526 12.5202 2 12.75 2C12.9798 2 13.2074 2.04526 13.4197 2.13321C13.632 2.22116 13.8249 2.35006 13.9874 2.51256C14.1499 2.67507 14.2788 2.86798 14.3668 3.0803C14.4547 3.29262 14.5 3.52019 14.5 3.75C14.5 4.21413 14.3156 4.65925 13.9874 4.98744C13.6592 5.31563 13.2141 5.5 12.75 5.5C12.2859 5.5 11.8408 5.31563 11.5126 4.98744C11.1844 4.65925 11 4.21413 11 3.75ZM2.5 3.75C2.5 3.55109 2.57902 3.36032 2.71967 3.21967C2.86032 3.07902 3.05109 3 3.25 3C3.44891 3 3.63968 3.07902 3.78033 3.21967C3.92098 3.36032 4 3.55109 4 3.75C4 3.94891 3.92098 4.13968 3.78033 4.28033C3.63968 4.42098 3.44891 4.5 3.25 4.5C3.05109 4.5 2.86032 4.42098 2.71967 4.28033C2.57902 4.13968 2.5 3.94891 2.5 3.75ZM3.25 2C2.78587 2 2.34075 2.18437 2.01256 2.51256C1.68437 2.84075 1.5 3.28587 1.5 3.75C1.5 4.21413 1.68437 4.65925 2.01256 4.98744C2.34075 5.31563 2.78587 5.5 3.25 5.5C3.71413 5.5 4.15925 5.31563 4.48744 4.98744C4.81563 4.65925 5 4.21413 5 3.75C5 3.28587 4.81563 2.84075 4.48744 2.51256C4.15925 2.18437 3.71413 2 3.25 2ZM4.3255 12.2525C4.09936 12.4016 3.83709 12.4866 3.56652 12.4986C3.29594 12.5106 3.02717 12.4491 2.78872 12.3207C2.55026 12.1923 2.35103 12.0017 2.21217 11.7692C2.0733 11.5366 1.99999 11.2708 2 11V7.75C2 7.6837 2.02634 7.62011 2.07322 7.57322C2.12011 7.52634 2.1837 7.5 2.25 7.5H4.2655C4.31159 7.13404 4.45798 6.78795 4.6885 6.5H2.25C1.91848 6.5 1.60054 6.6317 1.36612 6.86612C1.1317 7.10054 1 7.41848 1 7.75V11C0.999871 11.4305 1.11093 11.8538 1.32242 12.2288C1.53391 12.6038 1.83866 12.9179 2.20715 13.1405C2.57565 13.3631 2.99539 13.4869 3.42574 13.4996C3.85608 13.5124 4.28243 13.4139 4.6635 13.2135C4.50764 12.91 4.39393 12.5867 4.3255 12.2525ZM11.3365 13.2135C11.7176 13.4139 12.1439 13.5124 12.5743 13.4996C13.0046 13.4869 13.4244 13.3631 13.7928 13.1405C14.1613 12.9179 14.4661 12.6038 14.6776 12.2288C14.8891 11.8538 15.0001 11.4305 15 11V7.75C15 7.41848 14.8683 7.10054 14.6339 6.86612C14.3995 6.6317 14.0815 6.5 13.75 6.5H11.3115C11.542 6.78795 11.6884 7.13404 11.7345 7.5H13.75C13.8163 7.5 13.8799 7.52634 13.9268 7.57322C13.9737 7.62011 14 7.6837 14 7.75V11C14 11.2708 13.9267 11.5366 13.7878 11.7692C13.649 12.0017 13.4497 12.1923 13.2113 12.3207C12.9728 12.4491 12.7041 12.5106 12.4335 12.4986C12.1629 12.4866 11.9006 12.4016 11.6745 12.2525C11.6061 12.5867 11.4924 12.91 11.3365 13.2135ZM6.25 6.5C5.91848 6.5 5.60054 6.6317 5.36612 6.86612C5.1317 7.10054 5 7.41848 5 7.75V11.5C5 12.2956 5.31607 13.0587 5.87868 13.6213C6.44129 14.1839 7.20435 14.5 8 14.5C8.79565 14.5 9.55871 14.1839 10.1213 13.6213C10.6839 13.0587 11 12.2956 11 11.5V7.75C11 7.41848 10.8683 7.10054 10.6339 6.86612C10.3995 6.6317 10.0815 6.5 9.75 6.5H6.25ZM6 7.75C6 7.6837 6.02634 7.62011 6.07322 7.57322C6.12011 7.52634 6.1837 7.5 6.25 7.5H9.75C9.8163 7.5 9.87989 7.52634 9.92678 7.57322C9.97366 7.62011 10 7.6837 10 7.75V11.5C10 12.0304 9.78929 12.5391 9.41421 12.9142C9.03914 13.2893 8.53043 13.5 8 13.5C7.46957 13.5 6.96086 13.2893 6.58579 12.9142C6.21071 12.5391 6 12.0304 6 11.5V7.75Z" fill="white"/>
</svg>
